<svg xmlns="http://www.w3.org/2000/svg" width="29" height="29" viewBox="0 0 29 29">
  <g id="check_circle_outline_black_24dp" opacity="0.996">
    <path id="패스_398" data-name="패스 398" d="M0,0H29V29H0Z" fill="none"/>
    <path id="패스_399" data-name="패스 399" d="M14.083,2A12.083,12.083,0,1,0,26.167,14.083,12.088,12.088,0,0,0,14.083,2Zm0,21.75a9.667,9.667,0,1,1,9.667-9.667A9.679,9.679,0,0,1,14.083,23.75ZM18.772,9.6l-7.1,7.105L9.395,14.434a1.2,1.2,0,0,0-1.7,1.7l3.13,3.13a1.2,1.2,0,0,0,1.7,0L20.487,11.3a1.2,1.2,0,0,0,0-1.7A1.218,1.218,0,0,0,18.772,9.6Z" transform="translate(0.417 0.417)" fill="#B9B9B9"/>
  </g>
</svg>
