<?xml version="1.0" encoding="utf-8"?>
<!-- Generator: Adobe Illustrator 16.0.0, SVG Export Plug-In . SVG Version: 6.00 Build 0)  -->
<!DOCTYPE svg PUBLIC "-//W3C//DTD SVG 1.1//EN" "http://www.w3.org/Graphics/SVG/1.1/DTD/svg11.dtd">
<svg version="1.1" id="레이어_1" xmlns="http://www.w3.org/2000/svg" xmlns:xlink="http://www.w3.org/1999/xlink" x="0px"
	 y="0px" width="160px" height="160px" viewBox="0 0 160 160" enable-background="new 0 0 160 160" xml:space="preserve">
<g>
	<path fill="#104097" d="M130.868,100.982V60.253h4.788V36.977h-70.2v0.004c-23.825,0.093-43.113,19.593-43.113,43.636
		c0,24.044,19.288,43.543,43.113,43.637v0.005h70.2v-23.275H130.868z"/>
	<g>
		<path fill="#FFFFFF" d="M51.114,54.794h30.972l-2.037,8.041h2.107v3.266H50.762v-3.266h24.897l1.125-4.67h-25.67V54.794z
			 M51.114,58.972h23.984v2.95H51.114V58.972z M51.114,66.944H81.77v7.197H55.222v0.949H81.77v3.336H51.114v-7.234h26.547V70.28
			H51.114V66.944z"/>
		<path fill="#FFFFFF" d="M86.085,54.794h21.21v8.217H90.194v1.264h17.101v3.547h-21.21v-8.252h17.102v-1.229H86.085V54.794z
			 M86.085,68.734h4.109v1.44h22.438v-1.44h4.108v9.692H86.085V68.734z M90.194,74.845h22.438v-1.264H90.194V74.845z
			 M108.174,59.112h4.459v-4.67h4.108v13.379h-4.108v-5.057h-4.459V59.112z"/>
		<path fill="#FFFFFF" d="M56.451,95.728h19.666c3.688,0,5.653,2.634,5.653,5.899c0,3.301-1.932,5.97-5.653,5.97H56.451
			c-3.546,0-5.688-2.669-5.688-5.97C50.762,98.361,52.869,95.728,56.451,95.728z M50.973,84.876h9.34V82.91h4.145v1.966h8.884v3.653
			h-8.393c1.159,2.071,4.319,2.282,8.393,2.282v3.511c-6.882,0-9.446-1.053-10.851-3.406c-1.685,2.354-5.091,3.406-11.518,3.406
			v-3.511c4.214,0,7.55-0.177,8.813-2.282h-8.813V84.876z M57.329,103.945h17.839c1.58,0,2.353-1.054,2.353-2.318
			c0-1.229-0.772-2.248-2.353-2.248H57.329c-1.581,0-2.353,1.019-2.353,2.248C54.976,102.892,55.714,103.945,57.329,103.945z
			 M76.468,83.612h4.108v3.406h3.441v3.723h-3.441v3.581h-4.108V83.612z"/>
		<path fill="#FFFFFF" d="M86.085,83.963h4.109v7.023h11.061v-7.023h4.109v23.634H86.085V83.963z M90.194,103.945h11.061v-9.307
			H90.194V103.945z M112.633,83.612h4.108v24.336h-4.108V83.612z"/>
	</g>
</g>
</svg>
